<svg width="24" height="24" viewBox="0 0 24 24" fill="none" xmlns="http://www.w3.org/2000/svg">
<path fill-rule="evenodd" clip-rule="evenodd" d="M16.5587 0.902778C17.7624 -0.300926 19.714 -0.300926 20.9177 0.902779L23.0972 3.08228C24.3009 4.28598 24.3009 6.23757 23.0972 7.44128L21.1648 9.3737C21.0131 9.29858 20.8535 9.21735 20.688 9.13023C19.5741 8.54381 18.2523 7.72076 17.2658 6.73426C16.2793 5.74776 15.4562 4.42593 14.8698 3.31204C14.7827 3.14652 14.7014 2.9869 14.6263 2.83518L16.5587 0.902778ZM15.8516 8.14847C17.0189 9.31583 18.5035 10.2346 19.6793 10.8592L12.0801 18.4584C11.6085 18.93 10.9967 19.2359 10.3365 19.3302L5.7595 19.9841C4.7424 20.1294 3.8706 19.2576 4.0159 18.2405L4.66975 13.6635C4.76407 13.0033 5.06997 12.3915 5.54155 11.9199L13.1408 4.3207C13.7654 5.49646 14.6842 6.98109 15.8516 8.14847ZM1 22C0.447715 22 0 22.4477 0 23C0 23.5523 0.447715 24 1 24H23C23.5523 24 24 23.5523 24 23C24 22.4477 23.5523 22 23 22H1Z" fill="#818181"/>
</svg>
