<svg width="24" height="24" viewBox="0 0 24 24" fill="none" xmlns="http://www.w3.org/2000/svg">
<path d="M13.5001 6.75C13.0858 6.75 12.7501 6.41421 12.7501 6C12.7501 5.58579 13.0858 5.25 13.5001 5.25H18.0001C18.4143 5.25 18.7501 5.58579 18.7501 6V10.5C18.7501 10.9142 18.4143 11.25 18.0001 11.25C17.5858 11.25 17.2501 10.9142 17.2501 10.5V7.81066L12.5304 12.5303L11.4697 11.4697L16.1894 6.75H13.5001Z" fill="#FFEDFF"/>
<path d="M10.6274 17.1226C11.0416 17.1226 11.3774 17.4583 11.3774 17.8726C11.3774 18.2868 11.0416 18.6226 10.6274 18.6226L6.12739 18.6226C5.71317 18.6226 5.37739 18.2868 5.37739 17.8726L5.37739 13.3726C5.37739 12.9583 5.71317 12.6226 6.12739 12.6226C6.5416 12.6226 6.87739 12.9583 6.87739 13.3726L6.87739 16.0619L11.5971 11.3422L12.6577 12.4029L7.93804 17.1226L10.6274 17.1226Z" fill="#FFEDFF"/>
</svg>
