<svg width="36" height="42" viewBox="0 0 36 42" fill="none" xmlns="http://www.w3.org/2000/svg">
<path d="M18.3091 0.508118C19.0024 0.828582 19.2406 1.37337 19.1968 2.11044C19.1573 2.8005 19.1968 3.49911 19.1872 4.18598C19.1797 4.92518 18.6734 5.45929 17.9886 5.45929C17.3039 5.45929 16.7976 4.92518 16.7912 4.18598C16.7912 3.49377 16.8222 2.7973 16.7816 2.11044C16.7367 1.36269 16.9781 0.821104 17.6692 0.508118H18.3091Z" fill="#FFEDFF"/>
<path d="M24.0798 31.8378H11.9481C11.7932 31.0377 11.6778 30.2472 11.4834 29.4759C11.0844 27.8967 10.368 26.4153 9.37794 25.1219C7.80553 23.0474 7.09731 20.7006 7.20199 18.1005C7.41563 12.8086 11.5913 8.40543 16.8533 7.93114C22.377 7.43228 27.1989 10.8153 28.4797 16.1617C29.2275 19.282 28.6592 22.1971 26.8176 24.8281C25.4823 26.7349 24.5423 28.7912 24.1834 31.0996C24.1471 31.3357 24.1161 31.5718 24.0798 31.8378ZM18.1458 21.0584L17.036 22.7248C16.8277 23.0378 16.7273 23.3732 16.8319 23.7471C16.9708 24.2438 17.2998 24.5547 17.804 24.6369C18.3082 24.7192 18.7205 24.5162 19.0057 24.0921C19.7631 22.9641 20.5013 21.8275 21.2704 20.7048C21.5823 20.2476 21.6976 19.7872 21.4146 19.2862C21.1443 18.8034 20.7106 18.6453 20.1712 18.6549C19.4234 18.6731 18.665 18.6549 17.8339 18.6549C18.2217 18.0728 18.5688 17.5579 18.9096 17.0387C19.3497 16.3658 19.2365 15.634 18.6383 15.2505C18.0401 14.867 17.3564 15.0497 16.9185 15.7045C16.1707 16.8219 15.4294 17.9478 14.6752 19.0587C14.3815 19.4946 14.2992 19.9368 14.5556 20.4089C14.8119 20.8811 15.2211 21.0659 15.7477 21.0573C16.5189 21.0488 17.2902 21.0584 18.1458 21.0584Z" fill="#FFEDFF"/>
<path d="M12.0196 34.2669H23.9548C24.1812 36.7238 23.5478 38.842 21.4744 40.3076C19.4298 41.754 17.2186 41.8854 15.0405 40.6473C12.5986 39.2586 11.7867 37.0122 12.0196 34.2669Z" fill="#FFEDFF"/>
<path d="M31.1095 30.4875C31.0443 30.9928 30.8488 31.372 30.4162 31.5878C29.9601 31.8153 29.4847 31.8014 29.1087 31.4489C28.4678 30.8528 27.8375 30.2322 27.2457 29.5849C26.8249 29.1245 26.89 28.4205 27.3226 27.989C27.5284 27.774 27.8092 27.6468 28.1065 27.6336C28.4037 27.6205 28.6946 27.7225 28.9186 27.9185C29.5659 28.5113 30.1822 29.1405 30.7794 29.7846C30.9471 29.9652 31.0026 30.2504 31.1095 30.4875Z" fill="#FFEDFF"/>
<path d="M28.2864 9.69368C27.6818 9.64561 27.2973 9.44478 27.0868 8.98545C26.8764 8.52612 26.9223 8.07747 27.2577 7.71748C27.8463 7.08403 28.4573 6.46874 29.0919 5.88016C29.3147 5.68312 29.6041 5.57797 29.9014 5.5859C30.1988 5.59383 30.4821 5.71426 30.6942 5.92289C31.1375 6.35017 31.2005 7.08724 30.7711 7.55298C30.1857 8.18856 29.5683 8.79852 28.9327 9.38497C28.7404 9.56122 28.4424 9.62318 28.2864 9.69368Z" fill="#FFEDFF"/>
<path d="M9.02561 8.36375C8.97113 8.96623 8.77778 9.3401 8.33661 9.55161C7.89544 9.76312 7.42756 9.73748 7.06651 9.4042C6.42024 8.8092 5.7964 8.1875 5.2014 7.5423C4.78373 7.08938 4.84355 6.36727 5.26657 5.93998C5.47932 5.72345 5.76713 5.59693 6.07052 5.58659C6.3739 5.57626 6.66966 5.68288 6.89666 5.88443C7.5205 6.46447 8.1251 7.06908 8.70087 7.70039C8.8846 7.90122 8.95297 8.20886 9.02561 8.36375Z" fill="#FFEDFF"/>
<path d="M9.01144 29.0209C8.92918 29.1672 8.81702 29.492 8.60552 29.7248C8.09598 30.2867 7.54692 30.8133 7.0032 31.341C6.48832 31.8388 5.75339 31.8506 5.28017 31.387C4.80695 30.9234 4.80054 30.1767 5.29192 29.6661C5.83528 29.0999 6.39182 28.5441 6.96154 27.9986C7.12762 27.8221 7.34497 27.7023 7.58285 27.6561C7.82074 27.6099 8.06713 27.6397 8.28719 27.7412C8.72516 27.9228 9.01678 28.3736 9.01144 29.0209Z" fill="#FFEDFF"/>
<path d="M2.35757 19.8588C1.98477 19.8588 1.60983 19.8642 1.24129 19.8588C0.531998 19.846 0.00536573 19.3375 2.46589e-05 18.671C-0.0010012 18.511 0.0299913 18.3525 0.0911755 18.2048C0.15236 18.057 0.2425 17.923 0.356283 17.8106C0.470066 17.6982 0.60519 17.6097 0.753697 17.5503C0.902205 17.491 1.06109 17.462 1.221 17.465C2.00435 17.4543 2.78771 17.4543 3.57106 17.465C4.27609 17.4746 4.79844 17.9991 4.79203 18.671C4.78562 19.3429 4.25793 19.846 3.55077 19.8588C3.15446 19.8652 2.75602 19.8588 2.35757 19.8588Z" fill="#FFEDFF"/>
<path d="M33.5773 17.4607C33.9757 17.4607 34.3742 17.4521 34.7726 17.4607C34.9328 17.4567 35.0922 17.4848 35.2413 17.5435C35.3903 17.6022 35.5261 17.6902 35.6406 17.8023C35.7551 17.9145 35.8459 18.0484 35.9076 18.1963C35.9694 18.3441 36.0008 18.5029 36.0001 18.6631C35.9994 18.8233 35.9665 18.9818 35.9034 19.1291C35.8404 19.2764 35.7484 19.4095 35.6329 19.5206C35.5175 19.6317 35.3809 19.7185 35.2313 19.7759C35.0817 19.8332 34.9221 19.86 34.7619 19.8545C33.9789 19.8663 33.1938 19.8652 32.4119 19.8545C31.7068 19.8449 31.1824 19.3204 31.1856 18.6528C31.1888 17.9852 31.7197 17.4778 32.4215 17.4607C32.806 17.4543 33.1917 17.4607 33.5773 17.4607Z" fill="#FFEDFF"/>
</svg>
