<svg width="20" height="20" viewBox="0 0 20 20" fill="none" xmlns="http://www.w3.org/2000/svg">
<path fill-rule="evenodd" clip-rule="evenodd" d="M4.5835 10.2083C4.5835 10.7836 5.04987 11.25 5.62516 11.25C6.20046 11.25 6.66683 10.7836 6.66683 10.2083C6.66683 9.63303 6.20046 9.16666 5.62516 9.16666C5.04987 9.16666 4.5835 9.63303 4.5835 10.2083ZM9.79183 11.25C9.21653 11.25 8.75016 10.7836 8.75016 10.2083C8.75016 9.63303 9.21653 9.16666 9.79183 9.16666C10.3671 9.16666 10.8335 9.63303 10.8335 10.2083C10.8335 10.7836 10.3671 11.25 9.79183 11.25ZM13.9585 11.25C13.3832 11.25 12.9168 10.7836 12.9168 10.2083C12.9168 9.63303 13.3832 9.16666 13.9585 9.16666C14.5338 9.16666 15.0002 9.63303 15.0002 10.2083C15.0002 10.7836 14.5338 11.25 13.9585 11.25Z" fill="white"/>
</svg>
