<svg width="24" height="24" viewBox="0 0 24 24" fill="none" xmlns="http://www.w3.org/2000/svg">
<path d="M12.8485 4H11.1515C10.2143 4 9.45453 4.71634 9.45453 5.6C9.45453 6.61121 8.37258 7.25411 7.48444 6.77064L7.39423 6.72153C6.58258 6.27971 5.54472 6.54191 5.07612 7.30717L4.22763 8.69281C3.75902 9.45808 4.03711 10.4366 4.84877 10.8785C5.73734 11.3622 5.73733 12.6378 4.84876 13.1215C4.03711 13.5634 3.75902 14.5419 4.22763 15.3072L5.07612 16.6928C5.54472 17.4581 6.58258 17.7203 7.39423 17.2785L7.48444 17.2294C8.37258 16.7459 9.45453 17.3888 9.45453 18.4C9.45453 19.2837 10.2143 20 11.1515 20H12.8485C13.7857 20 14.5455 19.2837 14.5455 18.4C14.5455 17.3888 15.6274 16.7459 16.5156 17.2294L16.6058 17.2785C17.4174 17.7203 18.4553 17.4581 18.9239 16.6928L19.7724 15.3072C20.241 14.5419 19.9629 13.5634 19.1512 13.1215C18.2627 12.6378 18.2627 11.3622 19.1512 10.8785C19.9629 10.4366 20.241 9.45809 19.7724 8.69283L18.9239 7.30719C18.4553 6.54192 17.4174 6.27972 16.6058 6.72154L16.5156 6.77065C15.6274 7.25412 14.5455 6.61122 14.5455 5.6C14.5455 4.71634 13.7857 4 12.8485 4Z" stroke="white" stroke-linejoin="round"/>
<circle cx="12" cy="12" r="3" stroke="white"/>
</svg>
