<svg width="53" height="52" viewBox="0 0 53 52" fill="none" xmlns="http://www.w3.org/2000/svg">
<g filter="url(#filter0_b_307_898)">
<rect width="52.4" height="52" rx="8" fill="#5A2D84" fill-opacity="0.1"/>
<rect x="0.5" y="0.5" width="51.4" height="51" rx="7.5" stroke="#818181" stroke-opacity="0.2"/>
<path d="M10 36.8H9H10ZM10 15.2H11H10ZM17.2 8V7V8ZM35.2 8V7V8ZM42.4 15.2H41.4H42.4ZM42.4 26.6177H43.4H42.4ZM25.0177 44V43V44ZM17.2 44V45V44ZM40.2912 31.7088L39.5841 31.0017L40.2912 31.7088ZM30.1088 41.8912L30.8159 42.5983L30.1088 41.8912ZM28 36.8H27H28ZM35.2 29.6V28.6V28.6V29.6ZM20.0929 19.8929C19.7024 20.2834 19.7024 20.9166 20.0929 21.3071C20.4834 21.6976 21.1166 21.6976 21.5071 21.3071L20.0929 19.8929ZM23.6544 17.7456L24.3615 18.4527L23.6544 17.7456ZM28.7456 17.7456L28.0385 18.4527L28.7456 17.7456ZM30.8929 21.3071C31.2834 21.6976 31.9166 21.6976 32.3071 21.3071C32.6976 20.9166 32.6976 20.2834 32.3071 19.8929L30.8929 21.3071ZM27.2 17C27.2 16.4477 26.7523 16 26.2 16C25.6477 16 25.2 16.4477 25.2 17H27.2ZM25.2 26C25.2 26.5523 25.6477 27 26.2 27C26.7523 27 27.2 26.5523 27.2 26H25.2ZM11 36.8L11 15.2H9L9 36.8H11ZM17.2 9L35.2 9V7L17.2 7V9ZM41.4 15.2V26.6177H43.4V15.2H41.4ZM25.0177 43H17.2V45H25.0177V43ZM39.5841 31.0017L29.4017 41.1841L30.8159 42.5983L40.9983 32.4159L39.5841 31.0017ZM25.0177 45C27.1924 45 29.2781 44.1361 30.8159 42.5983L29.4017 41.1841C28.239 42.3468 26.662 43 25.0177 43V45ZM41.4 26.6177C41.4 28.262 40.7468 29.839 39.5841 31.0017L40.9983 32.4159C42.5361 30.8781 43.4 28.7924 43.4 26.6177H41.4ZM11 15.2C11 11.7758 13.7758 9 17.2 9V7C12.6713 7 9 10.6713 9 15.2H11ZM9 36.8C9 41.3287 12.6713 45 17.2 45V43C13.7758 43 11 40.2242 11 36.8H9ZM35.2 9C38.6242 9 41.4 11.7758 41.4 15.2H43.4C43.4 10.6713 39.7287 7 35.2 7V9ZM29 44V36.8H27V44H29ZM35.2 30.6L42.4 30.6V28.6H35.2V30.6ZM29 36.8C29 33.3758 31.7758 30.6 35.2 30.6V28.6C30.6713 28.6 27 32.2713 27 36.8H29ZM21.5071 21.3071L24.3615 18.4527L22.9473 17.0385L20.0929 19.8929L21.5071 21.3071ZM28.0385 18.4527L30.8929 21.3071L32.3071 19.8929L29.4527 17.0385L28.0385 18.4527ZM25.2 17V26H27.2V17H25.2ZM24.3615 18.4527C25.3769 17.4373 27.0231 17.4373 28.0385 18.4527L29.4527 17.0385C27.6563 15.2421 24.7437 15.2421 22.9473 17.0385L24.3615 18.4527Z" fill="#FFEDFF"/>
</g>
<defs>
<filter id="filter0_b_307_898" x="-50" y="-50" width="152.4" height="152" filterUnits="userSpaceOnUse" color-interpolation-filters="sRGB">
<feFlood flood-opacity="0" result="BackgroundImageFix"/>
<feGaussianBlur in="BackgroundImageFix" stdDeviation="25"/>
<feComposite in2="SourceAlpha" operator="in" result="effect1_backgroundBlur_307_898"/>
<feBlend mode="normal" in="SourceGraphic" in2="effect1_backgroundBlur_307_898" result="shape"/>
</filter>
</defs>
</svg>
