<svg width="64" height="64" viewBox="0 0 64 64" fill="none" xmlns="http://www.w3.org/2000/svg">
<g id="Huge-icon/business/outline/bar chart">
<g id="Vector">
<path d="M53.3333 8C56.2788 8 58.6667 10.3878 58.6667 13.3333V50.6667C58.6667 53.6122 56.2788 56 53.3333 56C50.3878 56 48 53.6122 48 50.6667V13.3333C48 10.3878 50.3878 8 53.3333 8Z" stroke="#FFEDFF" stroke-width="2"/>
<path d="M10.6667 29.3333C13.6122 29.3333 16 31.7211 16 34.6667L16 50.6667C16 53.6122 13.6122 56 10.6667 56C7.72114 56 5.33333 53.6122 5.33333 50.6667L5.33333 34.6667C5.33333 31.7211 7.72114 29.3333 10.6667 29.3333Z" stroke="#FFEDFF" stroke-width="2"/>
<path d="M32 18.6667C34.9455 18.6667 37.3333 21.0545 37.3333 24V50.6667C37.3333 53.6122 34.9455 56 32 56C29.0545 56 26.6667 53.6122 26.6667 50.6667L26.6667 24C26.6667 21.0545 29.0545 18.6667 32 18.6667Z" stroke="#FFEDFF" stroke-width="2"/>
</g>
</g>
</svg>
