<svg width="64" height="64" viewBox="0 0 64 64" fill="none" xmlns="http://www.w3.org/2000/svg">
<g id="huge-icon/education/outline/exam">
<path id="Vector" d="M29.3333 32V24C29.3333 21.0545 26.9455 18.6667 24 18.6667C21.0545 18.6667 18.6667 21.0545 18.6667 24V32M18.6667 26.6667H29.3333M18.6667 40H45.3333M18.6667 48H32M37.3333 20H45.3333M41.3333 16V24M16 58.6667H48C52.4183 58.6667 56 55.085 56 50.6667V13.3334C56 8.9151 52.4183 5.33337 48 5.33337H16C11.5817 5.33337 8 8.9151 8 13.3334V50.6667C8 55.085 11.5817 58.6667 16 58.6667Z" stroke="#FFEDFF" stroke-width="2" stroke-linecap="round"/>
</g>
</svg>
