<svg xmlns="http://www.w3.org/2000/svg" width="22" height="22" viewBox="0 0 22 22" fill="none">
    <path d="M12.229 3.03292C12.5579 1.73903 14.4869 1.73903 14.8158 3.03292L15.7208 6.59317C15.8383 7.05513 16.2164 7.41581 16.7006 7.52783L20.4327 8.39114C21.7891 8.70489 21.7891 10.5451 20.4327 10.8589L16.7006 11.7222C16.2164 11.8342 15.8383 12.1949 15.7208 12.6568L14.8158 16.2171C14.4869 17.511 12.5579 17.511 12.229 16.2171L11.324 12.6568C11.2066 12.1949 10.8285 11.8342 10.3442 11.7222L6.61211 10.8589C5.25574 10.5451 5.25574 8.70489 6.61211 8.39114L10.3442 7.52783C10.8285 7.41581 11.2066 7.05513 11.324 6.59317L12.229 3.03292Z" fill="white"/>
    <path d="M4.52137 0.264661C4.61107 -0.0882201 5.13717 -0.0882204 5.22687 0.264661L5.47368 1.23564C5.50571 1.36163 5.60883 1.45999 5.7409 1.49055L6.75875 1.72599C7.12867 1.81156 7.12867 2.31344 6.75875 2.39901L5.7409 2.63445C5.60883 2.665 5.50571 2.76337 5.47368 2.88936L5.22687 3.86034C5.13717 4.21322 4.61107 4.21322 4.52137 3.86034L4.27455 2.88936C4.24253 2.76337 4.13941 2.665 4.00734 2.63445L2.98949 2.39901C2.61957 2.31344 2.61957 1.81156 2.98949 1.72599L4.00734 1.49055C4.13941 1.45999 4.24253 1.36163 4.27455 1.23564L4.52137 0.264661Z" fill="white"/>
    <path d="M4.16865 14.2793C4.34805 13.5736 5.40026 13.5736 5.57966 14.2793L6.07328 16.2213C6.13733 16.4733 6.34357 16.67 6.60771 16.7311L8.64341 17.202C9.38325 17.3731 9.38325 18.3769 8.64341 18.548L6.60771 19.0189C6.34357 19.08 6.13733 19.2767 6.07328 19.5287L5.57966 21.4707C5.40026 22.1764 4.34805 22.1764 4.16865 21.4707L3.67502 19.5287C3.61097 19.2767 3.40473 19.08 3.14059 19.0189L1.10489 18.548C0.365055 18.3769 0.365055 17.3731 1.10489 17.202L3.14059 16.7311C3.40473 16.67 3.61097 16.4733 3.67502 16.2213L4.16865 14.2793Z" fill="white"/>
</svg>