<svg width="64" height="64" viewBox="0 0 64 64" fill="none" xmlns="http://www.w3.org/2000/svg">
<g id="huge-icon/education/outline/student">
<path id="Vector 1459" d="M53.3333 13.3333V27.9999" stroke="#FFEDFF" stroke-width="2" stroke-linecap="round"/>
<path id="Vector" d="M43.6667 18.6666V17.6666H41.6667V18.6666H43.6667ZM22.3334 18.6666V17.6666H20.3334V18.6666H22.3334ZM32 5.33325L32.3511 4.39692C32.1248 4.31203 31.8753 4.31203 31.6489 4.39692L32 5.33325ZM10.6667 13.3333L10.3156 12.3969C9.92526 12.5433 9.66669 12.9164 9.66669 13.3333C9.66669 13.7501 9.92526 14.1232 10.3156 14.2696L10.6667 13.3333ZM32 21.3333L31.6489 22.2696C31.8753 22.3545 32.1248 22.3545 32.3511 22.2696L32 21.3333ZM53.3334 13.3333L53.6845 14.2696C54.0748 14.1232 54.3334 13.7501 54.3334 13.3333C54.3334 12.9164 54.0748 12.5433 53.6845 12.3969L53.3334 13.3333ZM33.8961 45.3489L33.1851 44.6457L33.8961 45.3489ZM38.1322 41.0655L38.8432 41.7686L38.8432 41.7686L38.1322 41.0655ZM40.6347 40.3843L40.9168 39.4249H40.9168L40.6347 40.3843ZM25.8679 41.0655L26.5789 40.3623L25.8679 41.0655ZM30.1039 45.3489L30.815 44.6457L30.1039 45.3489ZM23.3653 40.3843L23.0832 39.4249H23.0832L23.3653 40.3843ZM52.3334 58.6666C52.3334 59.2189 52.7811 59.6666 53.3334 59.6666C53.8856 59.6666 54.3334 59.2189 54.3334 58.6666H52.3334ZM9.66669 58.6666C9.66669 59.2189 10.1144 59.6666 10.6667 59.6666C11.219 59.6666 11.6667 59.2189 11.6667 58.6666H9.66669ZM41.6667 18.6666V23.9999H43.6667V18.6666H41.6667ZM22.3334 23.9999V18.6666H20.3334V23.9999H22.3334ZM32 33.6666C26.6613 33.6666 22.3334 29.3387 22.3334 23.9999H20.3334C20.3334 30.4432 25.5567 35.6666 32 35.6666V33.6666ZM41.6667 23.9999C41.6667 29.3387 37.3388 33.6666 32 33.6666V35.6666C38.4433 35.6666 43.6667 30.4432 43.6667 23.9999H41.6667ZM31.6489 4.39692L10.3156 12.3969L11.0178 14.2696L32.3511 6.26958L31.6489 4.39692ZM32.3511 22.2696L53.6845 14.2696L52.9822 12.3969L31.6489 20.3969L32.3511 22.2696ZM31.6489 6.26958L52.9822 14.2696L53.6845 12.3969L32.3511 4.39692L31.6489 6.26958ZM32.3511 20.3969L11.0178 12.3969L10.3156 14.2696L31.6489 22.2696L32.3511 20.3969ZM34.6071 46.0521L38.8432 41.7686L37.4211 40.3623L33.1851 44.6457L34.6071 46.0521ZM40.3526 41.3437C47.6567 43.4916 52.3334 48.2124 52.3334 53.3333H54.3334C54.3334 46.8961 48.5734 41.6765 40.9168 39.4249L40.3526 41.3437ZM25.1569 41.7686L29.3929 46.0521L30.815 44.6457L26.5789 40.3623L25.1569 41.7686ZM11.6667 53.3333C11.6667 48.2124 16.3433 43.4916 23.6475 41.3437L23.0832 39.4249C15.4266 41.6765 9.66669 46.8961 9.66669 53.3333H11.6667ZM52.3334 53.3333V58.6666H54.3334V53.3333H52.3334ZM9.66669 53.3333V58.6666H11.6667V53.3333H9.66669ZM26.5789 40.3623C25.6871 39.4606 24.3572 39.0503 23.0832 39.4249L23.6475 41.3437C24.1592 41.1932 24.7399 41.347 25.1569 41.7686L26.5789 40.3623ZM38.8432 41.7686C39.2602 41.347 39.8409 41.1932 40.3526 41.3437L40.9168 39.4249C39.6429 39.0503 38.3129 39.4606 37.4211 40.3623L38.8432 41.7686ZM33.1851 44.6457C32.5327 45.3054 31.4673 45.3054 30.815 44.6457L29.3929 46.0521C30.8281 47.5033 33.172 47.5033 34.6071 46.0521L33.1851 44.6457Z" fill="#FFEDFF"/>
</g>
</svg>
