<svg width="64" height="64" viewBox="0 0 64 64" fill="none" xmlns="http://www.w3.org/2000/svg">
<g id="Huge-icon/user/outline/users 02">
<ellipse id="Ellipse 295" cx="32" cy="44" rx="16" ry="6.66667" stroke="#FFEDFF" stroke-width="2" stroke-linejoin="round"/>
<circle id="Ellipse 296" cx="32" cy="21.3334" r="8" stroke="#FFEDFF" stroke-width="2" stroke-linejoin="round"/>
<path id="Subtract" fill-rule="evenodd" clip-rule="evenodd" d="M14.9468 36.7888C12.6694 37.0464 10.6179 37.536 8.96007 38.1991C7.70135 38.7026 6.63239 39.3209 5.86584 40.0458C5.09771 40.7723 4.58337 41.6577 4.58337 42.6667C4.58337 43.6758 5.09771 44.5612 5.86584 45.2876C6.63239 46.0125 7.70135 46.6308 8.96007 47.1343C9.83845 47.4857 10.8273 47.7883 11.9017 48.0335C11.5394 47.4623 11.2519 46.8712 11.0457 46.2637C10.5003 46.1052 9.98922 45.9304 9.51716 45.7416C8.36302 45.2799 7.47936 44.749 6.8965 44.1978C6.31523 43.6481 6.08337 43.1304 6.08337 42.6667C6.08337 42.203 6.31523 41.6854 6.8965 41.1357C7.47936 40.5844 8.36302 40.0535 9.51716 39.5918C10.5 39.1987 11.652 38.8665 12.9304 38.6148C13.5063 37.9708 14.1823 37.36 14.9468 36.7888Z" fill="#FFEDFF"/>
<path id="Subtract_2" fill-rule="evenodd" clip-rule="evenodd" d="M52.9545 46.2637C52.7483 46.8712 52.4608 47.4623 52.0984 48.0335C53.1729 47.7883 54.1617 47.4857 55.0401 47.1343C56.2988 46.6308 57.3678 46.0125 58.1343 45.2876C58.9025 44.5612 59.4168 43.6758 59.4168 42.6667C59.4168 41.6577 58.9025 40.7723 58.1343 40.0458C57.3678 39.3209 56.2988 38.7026 55.0401 38.1991C53.3822 37.536 51.3308 37.0464 49.0533 36.7888C49.8179 37.36 50.4939 37.9708 51.0698 38.6148C52.3481 38.8665 53.5002 39.1987 54.483 39.5918C55.6372 40.0535 56.5208 40.5844 57.1037 41.1357C57.685 41.6854 57.9168 42.203 57.9168 42.6667C57.9168 43.1304 57.685 43.6481 57.1037 44.1978C56.5208 44.749 55.6372 45.2799 54.483 45.7416C54.011 45.9304 53.4999 46.1052 52.9545 46.2637Z" fill="#FFEDFF"/>
<path id="Subtract_3" fill-rule="evenodd" clip-rule="evenodd" d="M43.4451 28.1775C43.1844 28.6125 42.8996 29.0314 42.5925 29.4323C43.4162 29.8487 44.3474 30.0833 45.3333 30.0833C48.6931 30.0833 51.4167 27.3597 51.4167 24C51.4167 20.6402 48.6931 17.9166 45.3333 17.9166C45.1862 17.9166 45.0402 17.9219 44.8956 17.9321C45.0233 18.4174 45.1242 18.9134 45.1969 19.4186C45.2422 19.4173 45.2877 19.4166 45.3333 19.4166C47.8647 19.4166 49.9167 21.4687 49.9167 24C49.9167 26.5313 47.8647 28.5833 45.3333 28.5833C44.6602 28.5833 44.0209 28.4382 43.4451 28.1775Z" fill="#FFEDFF"/>
<path id="Subtract_4" fill-rule="evenodd" clip-rule="evenodd" d="M19.1044 17.9321C18.9599 17.9219 18.8139 17.9166 18.6667 17.9166C15.307 17.9166 12.5834 20.6402 12.5834 24C12.5834 27.3597 15.307 30.0833 18.6667 30.0833C19.6527 30.0833 20.5839 29.8487 21.4075 29.4323C21.1005 29.0314 20.8157 28.6125 20.555 28.1775C19.9792 28.4382 19.3399 28.5833 18.6667 28.5833C16.1354 28.5833 14.0834 26.5313 14.0834 24C14.0834 21.4687 16.1354 19.4166 18.6667 19.4166C18.7123 19.4166 18.7578 19.4173 18.8032 19.4186C18.8758 18.9134 18.9768 18.4174 19.1044 17.9321Z" fill="#FFEDFF"/>
</g>
</svg>
